<svg width="900" height="300" viewBox="0 0 900 300" xmlns="http://www.w3.org/2000/svg">
  <!-- Compass: ring + needle composed in left 300×300, using nested viewBox to crop/scale the 700×700 geometry -->
  <svg x="0" y="0" width="300" height="300" viewBox="50 50 600 600">
    <circle cx="350" cy="350" r="300" fill="#0d1117"/>
    <g transform="translate(350,350)">
      <line x1="0" y1="-290" x2="0" y2="-275" stroke="#6b9bd1" stroke-width="1.5" transform="rotate(0)"/>
      <line x1="0" y1="-290" x2="0" y2="-275" stroke="#6b9bd1" stroke-width="1.5" transform="rotate(30)"/>
      <line x1="0" y1="-290" x2="0" y2="-275" stroke="#6b9bd1" stroke-width="1.5" transform="rotate(60)"/>
      <line x1="0" y1="-290" x2="0" y2="-275" stroke="#6b9bd1" stroke-width="1.5" transform="rotate(90)"/>
      <line x1="0" y1="-290" x2="0" y2="-275" stroke="#6b9bd1" stroke-width="1.5" transform="rotate(120)"/>
      <line x1="0" y1="-290" x2="0" y2="-275" stroke="#6b9bd1" stroke-width="1.5" transform="rotate(150)"/>
      <line x1="0" y1="-290" x2="0" y2="-275" stroke="#6b9bd1" stroke-width="1.5" transform="rotate(180)"/>
      <line x1="0" y1="-290" x2="0" y2="-275" stroke="#6b9bd1" stroke-width="1.5" transform="rotate(210)"/>
      <line x1="0" y1="-290" x2="0" y2="-275" stroke="#6b9bd1" stroke-width="1.5" transform="rotate(240)"/>
      <line x1="0" y1="-290" x2="0" y2="-275" stroke="#6b9bd1" stroke-width="1.5" transform="rotate(270)"/>
      <line x1="0" y1="-290" x2="0" y2="-275" stroke="#6b9bd1" stroke-width="1.5" transform="rotate(300)"/>
      <line x1="0" y1="-290" x2="0" y2="-275" stroke="#6b9bd1" stroke-width="1.5" transform="rotate(330)"/>
      <line x1="0" y1="-290" x2="0" y2="-282" stroke="#2a3f5a" stroke-width="0.8" transform="rotate(10)"/>
      <line x1="0" y1="-290" x2="0" y2="-282" stroke="#2a3f5a" stroke-width="0.8" transform="rotate(20)"/>
      <line x1="0" y1="-290" x2="0" y2="-282" stroke="#2a3f5a" stroke-width="0.8" transform="rotate(40)"/>
      <line x1="0" y1="-290" x2="0" y2="-282" stroke="#2a3f5a" stroke-width="0.8" transform="rotate(50)"/>
      <line x1="0" y1="-290" x2="0" y2="-282" stroke="#2a3f5a" stroke-width="0.8" transform="rotate(70)"/>
      <line x1="0" y1="-290" x2="0" y2="-282" stroke="#2a3f5a" stroke-width="0.8" transform="rotate(80)"/>
      <line x1="0" y1="-290" x2="0" y2="-282" stroke="#2a3f5a" stroke-width="0.8" transform="rotate(100)"/>
      <line x1="0" y1="-290" x2="0" y2="-282" stroke="#2a3f5a" stroke-width="0.8" transform="rotate(110)"/>
      <line x1="0" y1="-290" x2="0" y2="-282" stroke="#2a3f5a" stroke-width="0.8" transform="rotate(130)"/>
      <line x1="0" y1="-290" x2="0" y2="-282" stroke="#2a3f5a" stroke-width="0.8" transform="rotate(140)"/>
      <line x1="0" y1="-290" x2="0" y2="-282" stroke="#2a3f5a" stroke-width="0.8" transform="rotate(160)"/>
      <line x1="0" y1="-290" x2="0" y2="-282" stroke="#2a3f5a" stroke-width="0.8" transform="rotate(170)"/>
      <line x1="0" y1="-290" x2="0" y2="-282" stroke="#2a3f5a" stroke-width="0.8" transform="rotate(190)"/>
      <line x1="0" y1="-290" x2="0" y2="-282" stroke="#2a3f5a" stroke-width="0.8" transform="rotate(200)"/>
      <line x1="0" y1="-290" x2="0" y2="-282" stroke="#2a3f5a" stroke-width="0.8" transform="rotate(220)"/>
      <line x1="0" y1="-290" x2="0" y2="-282" stroke="#2a3f5a" stroke-width="0.8" transform="rotate(230)"/>
      <line x1="0" y1="-290" x2="0" y2="-282" stroke="#2a3f5a" stroke-width="0.8" transform="rotate(250)"/>
      <line x1="0" y1="-290" x2="0" y2="-282" stroke="#2a3f5a" stroke-width="0.8" transform="rotate(260)"/>
      <line x1="0" y1="-290" x2="0" y2="-282" stroke="#2a3f5a" stroke-width="0.8" transform="rotate(280)"/>
      <line x1="0" y1="-290" x2="0" y2="-282" stroke="#2a3f5a" stroke-width="0.8" transform="rotate(290)"/>
      <line x1="0" y1="-290" x2="0" y2="-282" stroke="#2a3f5a" stroke-width="0.8" transform="rotate(310)"/>
      <line x1="0" y1="-290" x2="0" y2="-282" stroke="#2a3f5a" stroke-width="0.8" transform="rotate(320)"/>
      <line x1="0" y1="-290" x2="0" y2="-282" stroke="#2a3f5a" stroke-width="0.8" transform="rotate(340)"/>
      <line x1="0" y1="-290" x2="0" y2="-282" stroke="#2a3f5a" stroke-width="0.8" transform="rotate(350)"/>
    </g>
    <circle cx="350" cy="350" r="270" fill="none" stroke="#3d5a80" stroke-width="1.5"/>
    <circle cx="350" cy="350" r="255" fill="none" stroke="#2a3f5a" stroke-width="0.8"/>
    <g fill="#6b9bd1">
      <circle cx="350" cy="310" r="2"/><circle cx="385" cy="317" r="1.5"/>
      <circle cx="315" cy="317" r="1.5"/><circle cx="400" cy="338" r="1"/>
      <circle cx="300" cy="338" r="1"/><circle cx="396" cy="362" r="2"/>
      <circle cx="304" cy="362" r="1.5"/>
    </g>
    <circle cx="350" cy="350" r="250" fill="#141b24"/>
    <circle cx="350" cy="350" r="250" fill="none" stroke="#2a3f5a" stroke-width="0.8"/>
    <line x1="350" y1="110" x2="350" y2="590" stroke="#2a3f5a" stroke-width="0.8"/>
    <line x1="110" y1="350" x2="590" y2="350" stroke="#2a3f5a" stroke-width="0.8"/>
    <!-- Needle centered at (350,350) -->
    <g transform="translate(350,350)">
      <polygon points="0,-180 -18,-80 0,-100 18,-80" fill="#c9d8ec"/>
      <polygon points="0,180 -18,80 0,100 18,80" fill="#2a3f5a"/>
      <polygon points="180,0 80,-18 100,0 80,18" fill="#2a3f5a"/>
      <polygon points="-180,0 -80,-18 -100,0 -80,18" fill="#2a3f5a"/>
      <polygon points="0,-60 -8,-30 0,-40 8,-30" fill="#f59e0b" opacity="0.9" transform="rotate(45)"/>
      <polygon points="0,-60 -8,-30 0,-40 8,-30" fill="#c7d2fe" opacity="0.7" transform="rotate(135)"/>
      <polygon points="0,-60 -8,-30 0,-40 8,-30" fill="#c7d2fe" opacity="0.7" transform="rotate(225)"/>
      <polygon points="0,-60 -8,-30 0,-40 8,-30" fill="#f59e0b" opacity="0.9" transform="rotate(315)"/>
      <circle cx="0" cy="0" r="22" fill="none" stroke="#3d5a80" stroke-width="1.5"/>
      <circle cx="0" cy="0" r="8" fill="#6b9bd1"/>
    </g>
  </svg>
  <!-- Wordmark: ASTROLABE + EXPLORER, vertically centered in right 600×300 -->
  <text x="600" y="150" text-anchor="middle" fill="#c9d8ec" font-family="Inter,Georgia,sans-serif" font-size="80" font-weight="300" letter-spacing="8">ASTROLABE</text>
  <text x="600" y="210" text-anchor="middle" fill="#6b8fb5" font-family="Inter,Georgia,sans-serif" font-size="52" font-weight="300" letter-spacing="12">EXPLORER</text>
</svg>
